<svg xmlns="http://www.w3.org/2000/svg" width="21" height="21" viewBox="0 0 21 21">
    <g fill="none" stroke="#b3b3b3" stroke-width="2">
        <circle cx="10.5" cy="10.5" r="9.5" fill="none"/>
    </g>
    <path
            d="M161.473,168.584a.657.657,0,0,1-.464-1.121l6.5-6.5a.657.657,0,0,1,.928.928l-6.5,6.5a.657.657,0,0,1-.464.192Zm0,0"
            transform="translate(-154.221 -154.18)" fill="#b3b3b3"/>
    <path
            d="M167.948,168.6a.651.651,0,0,1-.464-.192l-6.5-6.5a.656.656,0,1,1,.928-.928l6.5,6.5a.656.656,0,0,1-.465,1.12Zm0,0"
            transform="translate(-154.2 -154.199)" fill="#b3b3b3"/>
</svg>